<svg width="144" height="16" viewBox="0 0 144 16" fill="none" xmlns="http://www.w3.org/2000/svg">
<path d="M1.65044 7.974C1.7251 7.87133 1.81844 7.792 1.93044 7.736L5.83644 6.042C5.90177 6.00467 5.98577 5.986 6.08844 5.986C6.12577 5.99533 6.1631 6.00467 6.20044 6.014C6.23777 6.02333 6.27044 6.042 6.29844 6.07C6.43844 6.154 6.50844 6.28467 6.50844 6.462V7.568C6.50844 7.85733 6.38711 8.05333 6.14444 8.156C5.98577 8.22133 5.83644 8.28667 5.69644 8.352C5.55644 8.408 5.42111 8.464 5.29044 8.52C5.07577 8.604 4.87977 8.68333 4.70244 8.758C4.53444 8.83267 4.45044 8.87467 4.45044 8.884L6.14444 9.598C6.38711 9.70067 6.50844 9.89667 6.50844 10.186V11.292C6.50844 11.4693 6.43844 11.6 6.29844 11.684C6.27044 11.712 6.23777 11.7307 6.20044 11.74C6.1631 11.7493 6.12577 11.7587 6.08844 11.768C5.98577 11.768 5.90177 11.7493 5.83644 11.712L3.89044 10.858L2.54644 10.27L1.93044 10.004C1.81844 9.95733 1.7251 9.88267 1.65044 9.78C1.57577 9.668 1.5291 9.53267 1.51044 9.374C1.5011 9.21533 1.49644 9.04733 1.49644 8.87C1.49644 8.702 1.5011 8.53867 1.51044 8.38C1.5291 8.22133 1.57577 8.086 1.65044 7.974ZM17.585 3.2C17.7156 3.2 17.8183 3.228 17.893 3.284C17.9676 3.33067 18.0283 3.37733 18.075 3.424C18.0843 3.424 18.0936 3.42867 18.103 3.438L25.187 10.088V3.746C25.187 3.58733 25.2383 3.45667 25.341 3.354C25.4436 3.25133 25.5743 3.2 25.733 3.2H26.965C27.1236 3.2 27.2543 3.25133 27.357 3.354C27.469 3.45667 27.525 3.58733 27.525 3.746V12.454C27.525 12.5193 27.5156 12.5893 27.497 12.664C27.4783 12.7293 27.4363 12.79 27.371 12.846C27.315 12.9113 27.2496 12.9533 27.175 12.972C27.1003 12.9907 27.0303 13 26.965 13H25.439C25.3083 13 25.2056 12.9767 25.131 12.93C25.0563 12.874 24.9956 12.8273 24.949 12.79L24.921 12.762L17.823 6.112V12.454C17.823 12.51 17.8136 12.5753 17.795 12.65C17.7763 12.7153 17.7343 12.7807 17.669 12.846C17.613 12.9113 17.5476 12.9533 17.473 12.972C17.4076 12.9907 17.3423 13 17.277 13H16.045C15.8863 13 15.7556 12.9487 15.653 12.846C15.5503 12.7433 15.499 12.6127 15.499 12.454V3.746C15.499 3.58733 15.5503 3.45667 15.653 3.354C15.7556 3.25133 15.8863 3.2 16.045 3.2H17.585ZM29.1806 3.466C29.2179 3.39133 29.2739 3.33067 29.3486 3.284C29.4419 3.228 29.5399 3.2 29.6426 3.2H31.0846C31.1219 3.2 31.2199 3.22333 31.3786 3.27C31.4532 3.31667 31.5139 3.37267 31.5606 3.438C31.6072 3.494 31.6446 3.54067 31.6726 3.578L36.0826 10.41L38.2946 6.994C38.5746 6.56467 38.8452 6.14933 39.1066 5.748C39.3679 5.33733 39.6012 4.97333 39.8066 4.656C40.0212 4.32933 40.1892 4.07267 40.3106 3.886C40.4412 3.69 40.5066 3.592 40.5066 3.592C40.5812 3.48 40.6606 3.38667 40.7446 3.312C40.8286 3.23733 40.9406 3.2 41.0806 3.2H42.5226C42.6159 3.2 42.7139 3.228 42.8166 3.284C42.8912 3.33067 42.9472 3.39133 42.9846 3.466C43.0219 3.53133 43.0406 3.61067 43.0406 3.704C43.0312 3.76 43.0172 3.81133 42.9986 3.858C42.9799 3.90467 42.9612 3.95133 42.9426 3.998L40.1426 8.31L37.3426 12.622C37.2866 12.734 37.2072 12.8273 37.1046 12.902C37.0019 12.9673 36.8852 13 36.7546 13H35.4106C35.2799 13 35.1679 12.9673 35.0746 12.902C34.9906 12.8367 34.9112 12.748 34.8366 12.636L29.2226 3.998C29.2039 3.95133 29.1806 3.90467 29.1526 3.858C29.1339 3.81133 29.1246 3.76 29.1246 3.704C29.1246 3.61067 29.1432 3.53133 29.1806 3.466ZM44.6804 11.544C44.6804 11.4413 44.6851 11.3853 44.6944 11.376C44.6944 11.2547 44.7318 11.1427 44.8064 11.04C44.8718 10.9747 44.9324 10.928 44.9884 10.9C45.0444 10.872 45.1191 10.858 45.2124 10.858H55.4324C55.5538 10.858 55.6658 10.8907 55.7684 10.956C55.8804 11.0213 55.9458 11.1193 55.9644 11.25C55.9738 11.2593 55.9784 11.3107 55.9784 11.404V12.454C55.9784 12.51 55.9691 12.5753 55.9504 12.65C55.9318 12.7153 55.8944 12.7807 55.8384 12.846L55.7964 12.888C55.7404 12.9347 55.6798 12.9673 55.6144 12.986C55.5491 12.9953 55.4884 13 55.4324 13H45.2264C45.0958 13 44.9838 12.9673 44.8904 12.902C44.8811 12.8927 44.8718 12.888 44.8624 12.888C44.8531 12.8787 44.8438 12.8647 44.8344 12.846C44.7784 12.79 44.7364 12.7293 44.7084 12.664C44.6898 12.5893 44.6804 12.524 44.6804 12.468V11.544ZM44.6944 3.704C44.7038 3.65733 44.7131 3.606 44.7224 3.55C44.7411 3.48467 44.7738 3.42867 44.8204 3.382L44.8904 3.326C44.9558 3.27 45.0258 3.23267 45.1004 3.214C45.1751 3.19533 45.2404 3.19067 45.2964 3.2H55.3764C55.4791 3.2 55.5631 3.21867 55.6284 3.256C55.7031 3.30267 55.7591 3.34933 55.7964 3.396C55.8431 3.43333 55.8758 3.49867 55.8944 3.592C55.9038 3.63867 55.9084 3.676 55.9084 3.704C55.9178 3.72267 55.9224 3.73667 55.9224 3.746V4.796C55.9224 4.86133 55.9131 4.93133 55.8944 5.006C55.8758 5.07133 55.8338 5.13667 55.7684 5.202C55.7031 5.258 55.6331 5.29533 55.5584 5.314C55.4931 5.33267 55.4324 5.342 55.3764 5.342H45.2264C45.1798 5.342 45.1238 5.33733 45.0584 5.328C45.0024 5.31867 44.9511 5.29067 44.9044 5.244C44.8858 5.23467 44.8718 5.23 44.8624 5.23C44.8624 5.22067 44.8531 5.21133 44.8344 5.202C44.7691 5.13667 44.7271 5.07133 44.7084 5.006C44.6898 4.93133 44.6804 4.866 44.6804 4.81V3.872C44.6804 3.844 44.6804 3.816 44.6804 3.788C44.6898 3.76 44.6944 3.732 44.6944 3.704ZM44.6804 7.68L44.7084 7.512C44.7084 7.40933 44.7504 7.30667 44.8344 7.204L44.9044 7.148C44.9698 7.092 45.0398 7.05933 45.1144 7.05C45.1891 7.03133 45.2591 7.02667 45.3244 7.036H55.2504C55.2971 7.036 55.3484 7.04067 55.4044 7.05C55.4698 7.05933 55.5258 7.08733 55.5724 7.134C55.6191 7.15267 55.6611 7.19467 55.6984 7.26C55.7358 7.32533 55.7591 7.38133 55.7684 7.428C55.7778 7.43733 55.7824 7.48867 55.7824 7.582V8.618C55.7824 8.786 55.7311 8.92133 55.6284 9.024C55.5351 9.11733 55.4044 9.164 55.2364 9.164H45.3944H45.2264C45.1798 9.164 45.1238 9.15933 45.0584 9.15C45.0024 9.14067 44.9464 9.11267 44.8904 9.066C44.8811 9.05667 44.8718 9.052 44.8624 9.052C44.8531 9.04267 44.8438 9.02867 44.8344 9.01C44.7411 8.93533 44.6898 8.83733 44.6804 8.716V7.68ZM67.054 3.2C67.9313 3.2 68.5986 3.43333 69.056 3.9C69.5226 4.35733 69.756 5.02467 69.756 5.902V7.848C69.756 8.30533 69.7 8.69267 69.588 9.01C69.4853 9.318 69.322 9.57467 69.098 9.78C68.8833 9.98533 68.6126 10.144 68.286 10.256C67.9593 10.368 67.5766 10.4473 67.138 10.494C67.11 10.494 67.0913 10.508 67.082 10.536C67.0726 10.5547 67.0773 10.5733 67.096 10.592C67.2453 10.732 67.432 10.9093 67.656 11.124C67.88 11.3293 68.1086 11.544 68.342 11.768C68.5753 11.992 68.7946 12.2067 69 12.412C69.2146 12.6173 69.3826 12.7807 69.504 12.902C69.5226 12.9207 69.5226 12.944 69.504 12.972C69.4946 12.9907 69.4806 13 69.462 13H66.284C66.256 13 66.242 12.9953 66.242 12.986C65.8406 12.594 65.4113 12.1787 64.954 11.74C64.4966 11.292 64.0533 10.8627 63.624 10.452C63.1946 10.032 62.798 9.64933 62.434 9.304C62.0793 8.95867 61.7993 8.688 61.594 8.492C61.5753 8.47333 61.5706 8.45467 61.58 8.436C61.5893 8.408 61.608 8.394 61.636 8.394H66.704C66.984 8.394 67.1706 8.34733 67.264 8.254C67.3666 8.16067 67.418 7.974 67.418 7.694V6.042C67.418 5.874 67.404 5.75267 67.376 5.678C67.348 5.594 67.3153 5.53333 67.278 5.496C67.2406 5.44933 67.18 5.412 67.096 5.384C67.012 5.356 66.8813 5.342 66.704 5.342H58.178C58.1406 5.342 58.122 5.32333 58.122 5.286V3.746C58.122 3.58733 58.1733 3.45667 58.276 3.354C58.3786 3.25133 58.5093 3.2 58.668 3.2H67.054ZM82.2573 3.102C82.5466 3.102 82.8173 3.158 83.0693 3.27C83.3213 3.37267 83.5406 3.51733 83.7273 3.704C83.914 3.89067 84.0586 4.11 84.1613 4.362C84.2733 4.614 84.3293 4.88467 84.3293 5.174V5.188C84.3293 5.22533 84.3106 5.244 84.2733 5.244H75.3413C75.1453 5.244 74.9913 5.26267 74.8793 5.3C74.7673 5.33733 74.688 5.37933 74.6413 5.426C74.5946 5.47267 74.5526 5.54267 74.5153 5.636C74.4873 5.72 74.4733 5.84133 74.4733 6C74.4733 6.28933 74.534 6.49467 74.6553 6.616C74.7113 6.68133 74.7953 6.73733 74.9073 6.784C75.0193 6.82133 75.1826 6.84933 75.3973 6.868L81.2913 7.204C82.2246 7.25067 82.962 7.512 83.5033 7.988C84.054 8.45467 84.3293 9.17333 84.3293 10.144C84.3293 11.152 84.0586 11.88 83.5173 12.328C82.9853 12.776 82.234 13 81.2633 13H74.2773C73.9973 13 73.7313 12.9487 73.4793 12.846C73.2273 12.734 73.0033 12.5893 72.8073 12.412C72.6206 12.2253 72.4713 12.006 72.3593 11.754C72.2473 11.502 72.1866 11.236 72.1773 10.956C72.1773 10.9093 72.196 10.886 72.2333 10.886H72.7513C72.9846 10.886 73.2833 10.886 73.6473 10.886C74.0206 10.886 74.4266 10.886 74.8653 10.886C75.304 10.8767 75.7613 10.872 76.2373 10.872C76.7226 10.872 77.1986 10.872 77.6653 10.872C78.2253 10.872 78.79 10.872 79.3593 10.872C79.938 10.872 80.5353 10.8673 81.1513 10.858C81.45 10.858 81.6693 10.8113 81.8093 10.718C81.9493 10.6153 82.0193 10.41 82.0193 10.102C82.0193 9.81267 81.9633 9.60267 81.8513 9.472C81.7953 9.416 81.7113 9.36467 81.5993 9.318C81.4873 9.27133 81.324 9.24333 81.1093 9.234L75.2153 8.898C74.2726 8.842 73.5306 8.58067 72.9893 8.114C72.448 7.64733 72.1773 6.924 72.1773 5.944C72.1773 4.94533 72.448 4.222 72.9893 3.774C73.5306 3.326 74.282 3.102 75.2433 3.102H82.2573ZM97.5901 3.2C97.6555 3.2 97.7208 3.214 97.7861 3.242C97.8608 3.26067 97.9308 3.298 97.9961 3.354C98.0988 3.48467 98.1501 3.61533 98.1501 3.746V4.796C98.1501 4.964 98.0941 5.09933 97.9821 5.202C97.8795 5.29533 97.7488 5.342 97.5901 5.342H93.2221V12.454C93.2221 12.51 93.2128 12.5753 93.1941 12.65C93.1755 12.7153 93.1335 12.7807 93.0681 12.846C93.0121 12.9113 92.9468 12.9533 92.8721 12.972C92.8068 12.9907 92.7415 13 92.6761 13H91.4721C91.4068 13 91.3368 12.9907 91.2621 12.972C91.1968 12.9533 91.1361 12.9113 91.0801 12.846C91.0148 12.7807 90.9728 12.7153 90.9541 12.65C90.9355 12.5753 90.9261 12.51 90.9261 12.454V5.342H86.5441C86.4881 5.342 86.4228 5.33267 86.3481 5.314C86.2828 5.29533 86.2175 5.258 86.1521 5.202C86.0868 5.13667 86.0448 5.07133 86.0261 5.006C86.0075 4.93133 85.9981 4.86133 85.9981 4.796V3.746C85.9981 3.58733 86.0495 3.45667 86.1521 3.354C86.2548 3.25133 86.3855 3.2 86.5441 3.2H97.5901ZM95.8606 12.496C95.8606 12.44 95.8699 12.3887 95.8886 12.342C95.9166 12.2953 95.9399 12.2487 95.9586 12.202L101.573 3.564C101.591 3.52667 101.624 3.48467 101.671 3.438C101.717 3.382 101.778 3.33067 101.853 3.284C101.937 3.228 102.035 3.2 102.147 3.2H103.491C103.621 3.2 103.733 3.23733 103.827 3.312C103.929 3.37733 104.013 3.466 104.079 3.578L109.679 12.216C109.725 12.2907 109.758 12.384 109.777 12.496C109.777 12.6733 109.702 12.818 109.553 12.93C109.431 12.9767 109.333 13 109.259 13H107.817C107.705 13 107.611 12.9767 107.537 12.93C107.453 12.8833 107.387 12.832 107.341 12.776C107.294 12.7107 107.261 12.6593 107.243 12.622L106.949 12.16L106.473 11.446L102.875 5.874C102.837 5.83667 102.8 5.83667 102.763 5.874L100.523 9.332L99.1786 11.446L98.4086 12.622C98.3806 12.6687 98.3433 12.72 98.2966 12.776C98.2499 12.832 98.1893 12.8833 98.1146 12.93C97.9559 12.9767 97.8579 13 97.8206 13H96.3786C96.3039 13 96.2059 12.9767 96.0846 12.93C95.9353 12.818 95.8606 12.6733 95.8606 12.496ZM120.376 12.3C120.18 12.1507 119.937 11.964 119.648 11.74C119.368 11.5067 119.065 11.2593 118.738 10.998C118.411 10.7273 118.071 10.4473 117.716 10.158C117.371 9.86867 117.03 9.584 116.694 9.304C116.293 8.97733 115.882 8.64133 115.462 8.296C115.042 7.95067 114.608 7.60067 114.16 7.246C114.123 7.20867 114.127 7.176 114.174 7.148L120.194 3.452C120.203 3.452 120.213 3.44733 120.222 3.438C120.343 3.33533 120.511 3.26067 120.726 3.214C120.745 3.20467 120.81 3.2 120.922 3.2H122.742C122.863 3.2 122.961 3.23267 123.036 3.298C123.12 3.36333 123.176 3.44267 123.204 3.536C123.232 3.62933 123.227 3.72733 123.19 3.83C123.162 3.93267 123.097 4.01667 122.994 4.082C122.471 4.40867 121.921 4.754 121.342 5.118C120.773 5.47267 120.236 5.80867 119.732 6.126C119.228 6.44333 118.794 6.714 118.43 6.938C118.066 7.162 117.837 7.302 117.744 7.358C117.697 7.386 117.693 7.41867 117.73 7.456L118.794 8.338C119.027 8.534 119.321 8.78133 119.676 9.08C120.04 9.36933 120.432 9.68667 120.852 10.032C121.272 10.3773 121.701 10.7367 122.14 11.11C122.588 11.474 123.008 11.824 123.4 12.16C123.484 12.2347 123.535 12.3233 123.554 12.426C123.573 12.5193 123.568 12.608 123.54 12.692C123.512 12.776 123.461 12.8507 123.386 12.916C123.311 12.972 123.218 13 123.106 13H121.412C121.319 13 121.244 12.986 121.188 12.958C121.123 12.9113 121.071 12.8787 121.034 12.86C121.006 12.832 120.95 12.7807 120.866 12.706L120.74 12.594C120.693 12.5567 120.637 12.5147 120.572 12.468C120.516 12.4213 120.451 12.3653 120.376 12.3ZM113.194 3.2C113.259 3.2 113.325 3.20933 113.39 3.228C113.465 3.24667 113.53 3.28867 113.586 3.354C113.651 3.41933 113.693 3.48933 113.712 3.564C113.731 3.62933 113.74 3.69 113.74 3.746V7.596V12.454C113.74 12.51 113.731 12.5753 113.712 12.65C113.693 12.7153 113.651 12.7807 113.586 12.846C113.53 12.9113 113.465 12.9533 113.39 12.972C113.325 12.9907 113.259 13 113.194 13H111.962C111.803 13 111.673 12.9487 111.57 12.846C111.467 12.7433 111.416 12.6127 111.416 12.454V3.746C111.416 3.58733 111.467 3.45667 111.57 3.354C111.673 3.25133 111.803 3.2 111.962 3.2H113.194ZM134.534 3.536C134.646 3.27467 134.833 3.144 135.094 3.144H136.186C136.28 3.144 136.359 3.16267 136.424 3.2C136.499 3.228 136.555 3.27467 136.592 3.34C136.639 3.41467 136.662 3.48467 136.662 3.55C136.681 3.65267 136.667 3.74133 136.62 3.816L134.786 8.17C134.562 8.73 134.338 9.26667 134.114 9.78C133.9 10.284 133.704 10.746 133.526 11.166C133.424 11.4087 133.326 11.642 133.232 11.866C133.139 12.09 133.046 12.3093 132.952 12.524C132.906 12.6453 132.831 12.7433 132.728 12.818C132.635 12.8927 132.523 12.93 132.392 12.93H131.3C131.207 12.93 131.123 12.9067 131.048 12.86C130.964 12.7947 130.913 12.748 130.894 12.72C130.866 12.692 130.848 12.6593 130.838 12.622C130.829 12.5847 130.82 12.552 130.81 12.524C130.801 12.4307 130.815 12.3373 130.852 12.244L134.534 3.536ZM137.343 9.78C137.371 9.724 137.409 9.682 137.455 9.654C137.502 9.61667 137.549 9.58867 137.595 9.57L139.303 8.842C139.145 8.77667 138.995 8.716 138.855 8.66C138.715 8.59467 138.58 8.534 138.449 8.478C138.347 8.43133 138.244 8.38933 138.141 8.352C138.039 8.31467 137.95 8.27733 137.875 8.24L137.609 8.128C137.469 8.08133 137.381 8.01133 137.343 7.918C137.297 7.85267 137.264 7.78733 137.245 7.722C137.236 7.64733 137.231 7.58667 137.231 7.54V6.434C137.231 6.34067 137.25 6.26133 137.287 6.196C137.306 6.168 137.325 6.14 137.343 6.112C137.371 6.084 137.404 6.06067 137.441 6.042C137.479 6.014 137.511 5.99533 137.539 5.986C137.577 5.97667 137.614 5.96733 137.651 5.958C137.763 5.958 137.852 5.97667 137.917 6.014L139.863 6.868C140.106 6.97067 140.344 7.078 140.577 7.19C140.811 7.29267 141.021 7.38133 141.207 7.456C141.31 7.50267 141.413 7.54933 141.515 7.596C141.618 7.64267 141.721 7.68467 141.823 7.722C141.917 7.75933 142.005 7.834 142.089 7.946C142.164 8.058 142.206 8.19333 142.215 8.352C142.234 8.51067 142.243 8.67867 142.243 8.856C142.243 9.024 142.234 9.18733 142.215 9.346C142.206 9.50467 142.164 9.64 142.089 9.752C142.015 9.864 141.921 9.94333 141.809 9.99L137.917 11.684C137.852 11.7213 137.763 11.74 137.651 11.74C137.614 11.7307 137.577 11.7213 137.539 11.712C137.511 11.7027 137.479 11.684 137.441 11.656C137.404 11.6373 137.371 11.614 137.343 11.586C137.325 11.558 137.306 11.53 137.287 11.502C137.25 11.4367 137.231 11.3573 137.231 11.264V10.158C137.231 10.1113 137.236 10.0553 137.245 9.99C137.264 9.91533 137.297 9.84533 137.343 9.78Z" fill="black"/>
</svg>
